<svg width="1600" height="900" viewBox="0 0 1600 900" fill="none" xmlns="http://www.w3.org/2000/svg">
  <rect width="1600" height="900" fill="#0A0E0F"/>
  <rect x="92" y="92" width="1416" height="716" rx="28" fill="#111717" stroke="rgba(155,243,207,0.14)"/>
  <rect x="128" y="128" width="1344" height="644" rx="20" fill="#182120"/>
  <path d="M128 290C262 250 318 332 430 310C560 285 662 194 800 214C928 232 994 330 1118 348C1247 366 1335 310 1472 262V772H128V290Z" fill="#24302E"/>
  <path d="M128 412C270 384 366 466 492 446C618 426 716 344 834 364C944 382 1020 470 1144 494C1260 516 1350 468 1472 430V772H128V412Z" fill="#2A3937"/>
  <circle cx="816" cy="448" r="208" fill="rgba(196,214,205,0.22)" stroke="rgba(226,235,229,0.18)" stroke-width="14"/>
  <circle cx="816" cy="448" r="146" fill="rgba(233,240,236,0.14)" stroke="rgba(233,240,236,0.22)" stroke-width="10"/>
  <circle cx="816" cy="448" r="82" fill="rgba(245,248,246,0.16)" stroke="rgba(245,248,246,0.28)" stroke-width="8"/>
  <path d="M816 240V656" stroke="rgba(246,250,248,0.2)" stroke-width="6" stroke-dasharray="12 12"/>
  <path d="M608 448H1024" stroke="rgba(246,250,248,0.2)" stroke-width="6" stroke-dasharray="12 12"/>
  <circle cx="1112" cy="360" r="54" fill="rgba(155,243,207,0.18)" stroke="rgba(155,243,207,0.44)" stroke-width="6"/>
  <circle cx="1166" cy="518" r="38" fill="rgba(155,243,207,0.12)" stroke="rgba(155,243,207,0.3)" stroke-width="5"/>
  <circle cx="536" cy="546" r="48" fill="rgba(155,243,207,0.14)" stroke="rgba(155,243,207,0.34)" stroke-width="5"/>
  <rect x="184" y="170" width="364" height="126" rx="18" fill="rgba(8,11,12,0.82)" stroke="rgba(155,243,207,0.16)"/>
  <text x="216" y="220" fill="#BFF9DF" font-family="'IBM Plex Mono', monospace" font-size="20" letter-spacing="3">LIVESTATE SATELLITE WINDOW</text>
  <text x="216" y="272" fill="#F4F7F5" font-family="'Cormorant Garamond', serif" font-size="52" font-weight="600">Lourdes Array</text>
  <text x="1008" y="694" fill="rgba(192,255,232,0.58)" font-family="'IBM Plex Mono', monospace" font-size="24" letter-spacing="4">22°59'00"N // 82°27'47"W</text>
  <text x="184" y="714" fill="rgba(192,255,232,0.4)" font-family="'IBM Plex Mono', monospace" font-size="20" letter-spacing="5">PHYSICAL TERRAIN > NARRATIVE NOISE</text>
</svg>
